<?xml version="1.0" encoding="UTF-8" standalone="no"?>
<svg
   xmlns:dc="http://purl.org/dc/elements/1.1/"
   xmlns:cc="http://creativecommons.org/ns#"
   xmlns:rdf="http://www.w3.org/1999/02/22-rdf-syntax-ns#"
   xmlns:svg="http://www.w3.org/2000/svg"
   xmlns="http://www.w3.org/2000/svg"
   xmlns:sodipodi="http://sodipodi.sourceforge.net/DTD/sodipodi-0.dtd"
   xmlns:inkscape="http://www.inkscape.org/namespaces/inkscape"
   id="svg323"
   version="1.1"
   viewBox="0 0 130 129"
   height="129mm"
   width="130mm"
   sodipodi:docname="FeatureCLI-Configurator-Icon.svg"
   inkscape:version="0.92.4 (5da689c313, 2019-01-14)">
  <sodipodi:namedview
     pagecolor="#ffffff"
     bordercolor="#666666"
     borderopacity="1"
     objecttolerance="10"
     gridtolerance="10"
     guidetolerance="10"
     inkscape:pageopacity="0"
     inkscape:pageshadow="2"
     inkscape:window-width="1920"
     inkscape:window-height="1017"
     id="namedview69"
     showgrid="false"
     inkscape:zoom="1.1774114"
     inkscape:cx="220.77509"
     inkscape:cy="321.37381"
     inkscape:window-x="-8"
     inkscape:window-y="-8"
     inkscape:window-maximized="1"
     inkscape:current-layer="svg323" />
  <defs
     id="defs317" />
  <metadata
     id="metadata320">
    <rdf:RDF>
      <cc:Work
         rdf:about="">
        <dc:format>image/svg+xml</dc:format>
        <dc:type
           rdf:resource="http://purl.org/dc/dcmitype/StillImage" />
        <dc:title />
      </cc:Work>
    </rdf:RDF>
  </metadata>
  <g
     id="layer1"
     transform="translate(-2.6458334,-4.7625002)">
    <g
       id="g77"
       transform="matrix(0.26458333,0,0,0.26458333,2.9074689,4.3302186)">
      <g
         id="g75">
        <path
           id="path73"
           d="M 0,0.764 V 491.543 H 492.308 V 0.764 Z M 472.615,471.851 H 19.692 V 20.457 h 452.923 z"
           inkscape:connector-curvature="0" />
      </g>
    </g>
    <g
       id="g83"
       transform="matrix(0.26458333,0,0,0.26458333,2.9074689,4.3302186)">
      <g
         id="g81">
        <polygon
           id="polygon79"
           points="78.096,409.803 92.019,423.726 180.615,335.13 92.019,246.534 78.096,260.457 152.769,335.13 " />
      </g>
    </g>
    <g
       id="g89"
       transform="matrix(0.26458333,0,0,0.26458333,2.9074689,4.3302186)">
      <g
         id="g87">
        <rect
           id="rect85"
           height="19.691999"
           width="120.044"
           y="406.94199"
           x="166.69501" />
      </g>
    </g>
    <g
       id="g431"
       transform="matrix(0.13229166,0,0,0.13229166,53.266926,16.712792)">
      <g
         id="g429">
        <path
           id="path417"
           d="M 80.2,62.7 C 75.4,57.9 67.7,57.9 62.9,62.6 58,67.4 58,75.1 62.8,79.9 L 92,109.3 c 2.3,2.3 5.4,3.6 8.7,3.6 v 0 c 3.2,0 6.3,-1.3 8.6,-3.6 L 198.2,20.9 C 203,16.1 203,8.4 198.3,3.6 193.5,-1.2 185.8,-1.2 181,3.6 L 154.1,30.3 C 139.8,15.5 119.9,7 99,7 56.7,7 22.3,41.4 22.3,83.7 c 0,42.3 34.4,76.7 76.7,76.7 34.1,0 63.6,-21.9 73.5,-54.5 2,-6.5 -1.7,-13.3 -8.2,-15.3 -6.5,-1.9 -13.3,1.7 -15.3,8.2 -6.6,21.8 -27.2,37.1 -50,37.1 -28.8,0 -52.2,-23.4 -52.2,-52.2 0,-28.8 23.4,-52.2 52.2,-52.2 14.3,0 27.9,6 37.7,16.2 l -35.9,35.7 z"
           inkscape:connector-curvature="0" />
        <path
           id="path419"
           d="m 99,170.6 c -42.3,0 -76.7,34.4 -76.7,76.7 0,42.3 34.4,76.7 76.7,76.7 42.3,0 76.7,-34.4 76.7,-76.7 0,-42.3 -34.4,-76.7 -76.7,-76.7 z m 0,128.9 c -28.8,0 -52.2,-23.4 -52.2,-52.2 0,-28.8 23.4,-52.2 52.2,-52.2 28.8,0 52.2,23.4 52.2,52.2 0,28.8 -23.4,52.2 -52.2,52.2 z"
           inkscape:connector-curvature="0" />
        <path
           id="path421"
           d="m 175.7,411 c 0,-42.3 -34.4,-76.7 -76.7,-76.7 -42.3,0 -76.7,34.4 -76.7,76.7 0,42.3 34.4,76.7 76.7,76.7 42.3,0 76.7,-34.4 76.7,-76.7 z M 99,463.3 c -28.8,0 -52.2,-23.4 -52.2,-52.2 0,-28.8 23.4,-52.2 52.2,-52.2 28.8,0 52.2,23.4 52.2,52.2 0,28.8 -23.4,52.2 -52.2,52.2 z"
           inkscape:connector-curvature="0" />
        <path
           id="path423"
           d="M 453.1,235 H 214.8 c -6.8,0 -12.3,5.5 -12.3,12.3 0,6.8 5.5,12.3 12.3,12.3 h 238.3 c 6.8,0 12.3,-5.5 12.3,-12.3 0,-6.8 -5.5,-12.3 -12.3,-12.3 z"
           inkscape:connector-curvature="0" />
        <path
           id="path425"
           d="M 453.1,71.5 H 214.8 c -6.8,0 -12.3,5.5 -12.3,12.3 0,6.8 5.5,12.3 12.3,12.3 h 238.3 c 6.8,0 12.3,-5.5 12.3,-12.3 0,-6.8 -5.5,-12.3 -12.3,-12.3 z"
           inkscape:connector-curvature="0" />
        <path
           id="path427"
           d="M 453.1,398.8 H 214.8 c -6.8,0 -12.3,5.5 -12.3,12.3 0,6.8 5.5,12.3 12.3,12.3 h 238.3 c 6.8,0 12.3,-5.5 12.3,-12.3 0,-6.9 -5.5,-12.3 -12.3,-12.3 z"
           inkscape:connector-curvature="0" />
      </g>
    </g>
  </g>
</svg>
