<?xml version="1.0" encoding="iso-8859-1"?>
<!-- Generator: Adobe Illustrator 19.0.0, SVG Export Plug-In . SVG Version: 6.00 Build 0)  -->
<svg version="1.1" id="Layer_1" xmlns="http://www.w3.org/2000/svg" xmlns:xlink="http://www.w3.org/1999/xlink" x="0px" y="0px"
	 viewBox="0 0 511.99 511.99" style="enable-background:new 0 0 511.99 511.99;" xml:space="preserve">
<path style="fill:#48CFAD;" d="M503.912,224.308L421.444,203.7l-61.92-61.905c-2-2-4.703-3.125-7.531-3.125H213.332
	c-4.766,0-8.953,3.156-10.258,7.734c-0.297,1.031-6.633,23.53-10.117,56.265H10.664C4.773,202.669,0,207.434,0,213.325v106.669
	c0,5.891,4.773,10.672,10.664,10.672h490.67c5.875,0,10.656-4.781,10.656-10.672v-85.326
	C511.99,229.761,508.662,225.495,503.912,224.308z"/>
<path style="fill:#5D9CEC;" d="M351.993,138.669H213.332c-4.766,0-8.953,3.156-10.258,7.734c-0.297,1.031-6.633,23.53-10.117,56.265
	h227.456l-60.889-60.874C357.524,139.794,354.821,138.669,351.993,138.669z"/>
<path style="fill:#48CFAD;" d="M503.912,224.308L421.444,203.7l-61.92-61.905c-2-2-4.703-3.125-7.531-3.125H213.332
	c-4.766,0-8.953,3.156-10.258,7.734c-0.297,1.031-6.633,23.53-10.117,56.265H10.664C4.773,202.669,0,207.434,0,213.325v106.669
	c0,5.891,4.773,10.672,10.664,10.672h490.67c5.875,0,10.656-4.781,10.656-10.672v-85.326
	C511.99,229.761,508.662,225.495,503.912,224.308z M490.647,309.321H21.335v-85.326H202.66c5.555,0,10.18-4.266,10.633-9.796
	c1.992-24.203,5.976-43.921,8.359-54.202h125.919l60.89,60.874c1.359,1.375,3.062,2.344,4.938,2.812l77.248,19.312V309.321z"/>
<g>
	<path style="fill:#E6E9ED;" d="M503.912,224.308l-34.577-8.64v19c0,5.891,4.766,10.656,10.656,10.656h31.999v-10.656
		C511.99,229.761,508.662,225.495,503.912,224.308z"/>
	<path style="fill:#E6E9ED;" d="M319.993,255.995H298.65c-5.875,0-10.655-4.781-10.655-10.671s4.78-10.656,10.655-10.656h21.343
		c5.891,0,10.656,4.766,10.656,10.656S325.884,255.995,319.993,255.995z"/>
</g>
<path style="fill:#ED5564;" d="M0,245.324h10.664c4.007,0,7.671-2.234,9.5-5.797l18.867-36.858H10.664
	C4.773,202.669,0,207.434,0,213.325C0,213.325,0,245.324,0,245.324z"/>
<rect x="255.995" y="159.995" style="fill:#4A89DC;" width="21.344" height="42.671"/>
<g>
	<path style="fill:#434A54;" d="M117.333,266.667c-29.413,0-53.335,23.922-53.335,53.326c0,29.406,23.922,53.328,53.335,53.328
		c29.406,0,53.327-23.922,53.327-53.328C170.661,290.589,146.739,266.667,117.333,266.667z"/>
	<path style="fill:#434A54;" d="M415.992,266.667c-29.405,0-53.343,23.922-53.343,53.326c0,29.406,23.938,53.328,53.343,53.328
		s53.343-23.922,53.343-53.328C469.335,290.589,445.397,266.667,415.992,266.667z"/>
</g>
<g>
	<path style="fill:#F5F7FA;" d="M124.872,312.446c4.164,4.172,4.164,10.922,0,15.094c-4.164,4.156-10.922,4.156-15.085,0
		c-4.164-4.172-4.164-10.922,0-15.094C113.951,308.29,120.708,308.29,124.872,312.446z"/>
	<path style="fill:#F5F7FA;" d="M423.538,312.446c4.172,4.172,4.172,10.922,0,15.094c-4.172,4.156-10.921,4.156-15.077,0
		c-4.188-4.172-4.188-10.922,0-15.094C412.617,308.29,419.366,308.29,423.538,312.446z"/>
</g>
<g>
</g>
<g>
</g>
<g>
</g>
<g>
</g>
<g>
</g>
<g>
</g>
<g>
</g>
<g>
</g>
<g>
</g>
<g>
</g>
<g>
</g>
<g>
</g>
<g>
</g>
<g>
</g>
<g>
</g>
</svg>
