<?xml version="1.0" encoding="UTF-8" standalone="no"?>
<!-- Generator: Adobe Illustrator 19.0.0, SVG Export Plug-In . SVG Version: 6.00 Build 0)  -->

<svg
   xmlns:dc="http://purl.org/dc/elements/1.1/"
   xmlns:cc="http://creativecommons.org/ns#"
   xmlns:rdf="http://www.w3.org/1999/02/22-rdf-syntax-ns#"
   xmlns:svg="http://www.w3.org/2000/svg"
   xmlns="http://www.w3.org/2000/svg"
   xmlns:sodipodi="http://sodipodi.sourceforge.net/DTD/sodipodi-0.dtd"
   xmlns:inkscape="http://www.inkscape.org/namespaces/inkscape"
   version="1.1"
   id="Layer_1"
   x="0px"
   y="0px"
   viewBox="0 0 496 496"
   style="enable-background:new 0 0 496 496;"
   xml:space="preserve"
   sodipodi:docname="smartphone-svgrepo-com.svg"
   inkscape:version="0.92.4 (5da689c313, 2019-01-14)"><metadata
   id="metadata363"><rdf:RDF><cc:Work
       rdf:about=""><dc:format>image/svg+xml</dc:format><dc:type
         rdf:resource="http://purl.org/dc/dcmitype/StillImage" /></cc:Work></rdf:RDF></metadata><defs
   id="defs361" /><sodipodi:namedview
   pagecolor="#ffffff"
   bordercolor="#666666"
   borderopacity="1"
   objecttolerance="10"
   gridtolerance="10"
   guidetolerance="10"
   inkscape:pageopacity="0"
   inkscape:pageshadow="2"
   inkscape:window-width="1920"
   inkscape:window-height="1017"
   id="namedview359"
   showgrid="false"
   inkscape:zoom="1.3457839"
   inkscape:cx="175.93881"
   inkscape:cy="271.23048"
   inkscape:window-x="-8"
   inkscape:window-y="-8"
   inkscape:window-maximized="1"
   inkscape:current-layer="Layer_1" />
<path
   style="fill:#97AAA9;"
   d="M304.2,8H85.8c-13.6,0-28,14.4-28,28.8V468c0,14.4,14.4,28,28,28h218.4c12.8,0,25.6-13.6,25.6-28  V36.8C329.8,22.4,317,8,304.2,8z"
   id="path218" />
<path
   style="fill:#B5C6C6;"
   d="M304.2,0H85.8c-13.6,0-28,13.6-28,28v431.2c0,14.4,14.4,28.8,28,28.8h218.4  c12.8,0,25.6-14.4,25.6-28.8V28C329.8,13.6,317,0,304.2,0z"
   id="path220" />
<rect
   x="57.8"
   y="40"
   style="fill:#5C777A;"
   width="272"
   height="392"
   id="rect222" />
<path
   style="opacity:0.3;fill:#2B545B;enable-background:new    ;"
   d="M289.8,32H100.2c-9.6,0-18.4,8.8-18.4,19.2v377.6  c0,10.4,8.8,11.2,18.4,11.2h189.6c9.6,0,16,0,16-11.2V51.2C305.8,40.8,299.4,32,289.8,32z"
   id="path224" />
<path
   style="fill:#193E44;"
   d="M289.8,40H100.2c-9.6,0-18.4,7.2-18.4,17.6v353.6c0,10.4,8.8,20.8,18.4,20.8h189.6  c9.6,0,16-10.4,16-20.8V57.6C305.8,47.2,299.4,40,289.8,40z"
   id="path226" />
<g
   id="g232">
	<path
   style="fill:#244B54;"
   d="M289,429.6c9.6,0,16.8-8.8,16.8-19.2V57.6c0-10.4-6.4-17.6-16-17.6H100.2c-9.6,0-18.4,8-18.4,18.4"
   id="path228" />
	<circle
   style="fill:#244B54;"
   cx="89"
   cy="20"
   r="6.4"
   id="circle230" />
</g>
<path
   style="fill:#193E44;"
   d="M93.8,24c-2.4,2.4-6.4,2.4-8.8,0s-2.4-6.4,0-8.8"
   id="path234" />
<path
   style="fill:#244B54;"
   d="M130.6,20c0,4-3.2,4.8-7.2,4.8h-19.2c-4,0-7.2-0.8-7.2-4.8l0,0c0-4,3.2-4.8,7.2-4.8h19.2  C127.4,15.2,130.6,16,130.6,20L130.6,20z"
   id="path236" />
<path
   style="fill:#DFEDED;"
   d="M112.2,20c0,2.4-1.6,4-4,4s-4-1.6-4-4s2.4-4,4-4C110.6,16,112.2,17.6,112.2,20z"
   id="path238" />
<path
   style="fill:#B5C6C6;"
   d="M111.4,22.4c-1.6,1.6-4,1.6-5.6,0s-1.6-4,0-5.6"
   id="path240" />
<circle
   style="fill:#DFEDED;"
   cx="119.4"
   cy="20"
   r="4"
   id="circle242" />
<path
   style="fill:#B5C6C6;"
   d="M122.6,22.4c-1.6,1.6-4,1.6-5.6,0s-1.6-4,0-5.6"
   id="path244" />
<g
   id="g310">
	<rect
   x="184.2"
   y="17.6"
   style="fill:#798988;"
   width="4"
   height="4"
   id="rect246" />
	<rect
   x="178.6"
   y="17.6"
   style="fill:#798988;"
   width="4"
   height="4"
   id="rect248" />
	<rect
   x="189.8"
   y="17.6"
   style="fill:#798988;"
   width="4"
   height="4"
   id="rect250" />
	<rect
   x="156.2"
   y="17.6"
   style="fill:#798988;"
   width="4"
   height="4"
   id="rect252" />
	<rect
   x="161.8"
   y="17.6"
   style="fill:#798988;"
   width="4"
   height="4"
   id="rect254" />
	<rect
   x="195.4"
   y="17.6"
   style="fill:#798988;"
   width="4"
   height="4"
   id="rect256" />
	<rect
   x="167.4"
   y="17.6"
   style="fill:#798988;"
   width="4"
   height="4"
   id="rect258" />
	<rect
   x="173"
   y="17.6"
   style="fill:#798988;"
   width="4"
   height="4"
   id="rect260" />
	<rect
   x="201"
   y="17.6"
   style="fill:#798988;"
   width="4"
   height="4"
   id="rect262" />
	<path
   style="fill:#798988;"
   d="M154.6,17.6h-4c-0.8,0-2.4,0.8-2.4,2.4s0.8,2.4,2.4,2.4h4V17.6z"
   id="path264" />
	<rect
   x="223.4"
   y="17.6"
   style="fill:#798988;"
   width="4"
   height="4"
   id="rect266" />
	<path
   style="fill:#798988;"
   d="M239.4,17.6h-4v4h4c0.8,0,2.4-0.8,2.4-2.4S240.2,17.6,239.4,17.6z"
   id="path268" />
	<rect
   x="229"
   y="17.6"
   style="fill:#798988;"
   width="4"
   height="4"
   id="rect270" />
	<rect
   x="206.6"
   y="17.6"
   style="fill:#798988;"
   width="4"
   height="4"
   id="rect272" />
	<rect
   x="212.2"
   y="17.6"
   style="fill:#798988;"
   width="4"
   height="4"
   id="rect274" />
	<rect
   x="217.8"
   y="17.6"
   style="fill:#798988;"
   width="4"
   height="4"
   id="rect276" />
	<rect
   x="184.2"
   y="478.4"
   style="fill:#798988;"
   width="4"
   height="4"
   id="rect278" />
	<rect
   x="178.6"
   y="478.4"
   style="fill:#798988;"
   width="4"
   height="4"
   id="rect280" />
	<rect
   x="189.8"
   y="478.4"
   style="fill:#798988;"
   width="4"
   height="4"
   id="rect282" />
	<rect
   x="156.2"
   y="478.4"
   style="fill:#798988;"
   width="4"
   height="4"
   id="rect284" />
	<rect
   x="161.8"
   y="478.4"
   style="fill:#798988;"
   width="4"
   height="4"
   id="rect286" />
	<rect
   x="195.4"
   y="478.4"
   style="fill:#798988;"
   width="4"
   height="4"
   id="rect288" />
	<rect
   x="167.4"
   y="478.4"
   style="fill:#798988;"
   width="4"
   height="4"
   id="rect290" />
	<rect
   x="173"
   y="478.4"
   style="fill:#798988;"
   width="4"
   height="4"
   id="rect292" />
	<rect
   x="201"
   y="478.4"
   style="fill:#798988;"
   width="4"
   height="4"
   id="rect294" />
	<path
   style="fill:#798988;"
   d="M154.6,478.4h-4c-0.8,0-2.4,0.8-2.4,2.4c0,0.8,0.8,2.4,2.4,2.4h4V478.4z"
   id="path296" />
	<rect
   x="223.4"
   y="478.4"
   style="fill:#798988;"
   width="4"
   height="4"
   id="rect298" />
	<path
   style="fill:#798988;"
   d="M239.4,478.4h-4v4h4c0.8,0,2.4-0.8,2.4-2.4C241,480,240.2,478.4,239.4,478.4z"
   id="path300" />
	<rect
   x="229"
   y="478.4"
   style="fill:#798988;"
   width="4"
   height="4"
   id="rect302" />
	<rect
   x="206.6"
   y="478.4"
   style="fill:#798988;"
   width="4"
   height="4"
   id="rect304" />
	<rect
   x="212.2"
   y="478.4"
   style="fill:#798988;"
   width="4"
   height="4"
   id="rect306" />
	<rect
   x="217.8"
   y="478.4"
   style="fill:#798988;"
   width="4"
   height="4"
   id="rect308" />
</g>
<path
   style="fill:#97AAA9;"
   d="M209.8,456c0,8-6.4,16-14.4,16h-1.6c-8,0-16.8-8-16.8-16v-1.6c0-8,8.8-15.2,16.8-15.2h1.6  c8,0,14.4,7.2,14.4,15.2V456z"
   id="path312" />
<path
   style="fill:#8C9997;"
   d="M193.8,440h1.6c8,0,14.4,7.2,14.4,15.2v0.8c0,8-6.4,16-14.4,16h-1.6"
   id="path314" />




<g
   id="g328">
</g>
<g
   id="g330">
</g>
<g
   id="g332">
</g>
<g
   id="g334">
</g>
<g
   id="g336">
</g>
<g
   id="g338">
</g>
<g
   id="g340">
</g>
<g
   id="g342">
</g>
<g
   id="g344">
</g>
<g
   id="g346">
</g>
<g
   id="g348">
</g>
<g
   id="g350">
</g>
<g
   id="g352">
</g>
<g
   id="g354">
</g>
<g
   id="g356">
</g>
</svg>