<?xml version="1.0" standalone="no"?>
<!DOCTYPE svg PUBLIC "-//W3C//DTD SVG 20010904//EN"
 "http://www.w3.org/TR/2001/REC-SVG-20010904/DTD/svg10.dtd">
<svg version="1.0" xmlns="http://www.w3.org/2000/svg"
 width="1011.000000pt" height="477.000000pt" viewBox="0 0 1011.000000 477.000000"
 preserveAspectRatio="xMidYMid meet">
<metadata>
Created by potrace 1.16, written by Peter Selinger 2001-2019
</metadata>
<g transform="translate(0.000000,477.000000) scale(0.100000,-0.100000)"
fill="#000000" stroke="none">
<path d="M60 4125 l0 -595 525 0 525 0 0 595 0 595 -525 0 -525 0 0 -595z
m1040 0 l0 -585 -515 0 -515 0 0 585 0 585 515 0 515 0 0 -585z"/>
<path d="M7170 4380 c-19 -19 -34 -20 -512 -23 l-493 -2 493 -3 c490 -2 494
-2 511 -23 20 -25 56 -19 66 11 7 23 1 36 -25 50 -15 8 -24 6 -40 -10z"/>
</g>
</svg>
